<svg width="40" height="40" viewBox="0 0 40 40" fill="none" xmlns="http://www.w3.org/2000/svg">
<path d="M19.4435 1.0535L18.9702 2.09472L17.9763 2.2367C17.4317 2.31968 16.9111 2.41433 16.8164 2.43769C16.6978 2.47334 16.9111 2.76899 17.479 3.3486L18.3193 4.20111L18.1533 5.25462C18.0586 5.83423 17.9873 6.37881 18.0113 6.45011C18.0347 6.55644 18.3543 6.42613 18.9345 6.08316C19.4195 5.81087 19.9051 5.57423 19.9997 5.57423C20.0944 5.57423 20.58 5.81087 21.0649 6.08316C21.6095 6.40278 21.9642 6.54476 21.9882 6.46178C21.9998 6.39049 21.9408 5.84652 21.8462 5.2663L21.6685 4.20111L22.5088 3.36089C23.4554 2.40204 23.491 2.47334 21.9642 2.2367L21.0293 2.09472L20.556 1.04121C20.2837 0.473278 20.0354 0 19.9997 0C19.9641 0 19.7158 0.473893 19.4435 1.0535Z" fill="#FF6E00"/>
<path d="M9.99985 3.38486C10.0355 3.83478 10.0945 4.39104 10.1185 4.61538C10.1775 5.00569 10.1302 5.06531 9.27824 5.7279C8.6513 6.21285 8.42633 6.44949 8.54435 6.52079C8.62733 6.56812 9.13626 6.72178 9.66855 6.86376L10.6391 7.13605L11.0767 8.30757L11.5266 9.47909L11.7989 9.02916C11.9526 8.78085 12.2249 8.33093 12.4025 8.02299L12.7221 7.45505H13.8814C14.5089 7.45505 15.0296 7.41941 15.0296 7.38376C15.0296 7.34811 14.7099 6.91048 14.3196 6.42491C13.9293 5.92766 13.6097 5.45438 13.6097 5.35972C13.6097 5.26507 13.716 4.75614 13.858 4.23553C13.9883 3.71493 14.0707 3.265 14.0473 3.24165C14.0234 3.206 13.5741 3.34798 13.0651 3.54959C12.5562 3.7389 12.0712 3.90485 11.9883 3.90485C11.9053 3.90485 11.4793 3.64424 11.0417 3.33692C10.5918 3.02898 10.1658 2.72166 10.0834 2.67433C9.95252 2.59197 9.92855 2.72227 9.99985 3.38486Z" fill="#FF6E00"/>
<path d="M29.0763 3.25456C28.5674 3.60982 28.0941 3.90547 28.0111 3.90547C27.9282 3.90547 27.4432 3.73951 26.9343 3.5502C26.4253 3.34921 25.9877 3.20723 25.952 3.23058C25.9281 3.25456 26.0233 3.72783 26.153 4.2718C26.2833 4.81637 26.3897 5.3253 26.3897 5.40766C26.3897 5.47835 26.0701 5.92827 25.6798 6.41384C25.2895 6.88712 24.9698 7.31307 24.9698 7.3604C24.9698 7.4194 25.4904 7.45505 26.1297 7.45505H27.2779L27.8698 8.47291C28.544 9.62107 28.4021 9.69175 29.0413 7.97566L29.3609 7.13544L30.3315 6.87483C30.8637 6.72116 31.3727 6.56689 31.4557 6.51956C31.562 6.46055 31.3493 6.21162 30.7457 5.73834C30.2724 5.35972 29.8698 5.04011 29.8582 5.02843C29.8465 5.02843 29.8821 4.49614 29.9528 3.85691C30.0118 3.21768 30.0475 2.67371 30.0241 2.64974C30.0112 2.62762 29.5736 2.8999 29.0763 3.25456Z" fill="#FF6E00"/>
<path d="M5.73903 9.25474C5.3604 9.72802 5.04078 10.1306 5.02911 10.1423C5.02911 10.154 4.49682 10.1183 3.85758 10.0476C3.21834 9.98863 2.67437 9.95298 2.6504 9.97634C2.62705 9.98801 2.89872 10.4263 3.25399 10.9229C3.60926 11.4318 3.90491 11.9051 3.90491 11.9881C3.90491 12.0711 3.73895 12.556 3.54964 13.0649C3.34865 13.5739 3.20666 14.0238 3.2417 14.0471C3.26567 14.0705 3.71498 13.9881 4.23559 13.8578C4.7562 13.7158 5.26513 13.6095 5.35979 13.6095C5.45444 13.6095 5.92773 13.9291 6.42498 14.3194C6.90994 14.7097 7.34819 15.0293 7.38384 15.0293C7.41949 15.0293 7.45514 14.5087 7.45514 13.8695V12.7214L8.02307 12.4017C8.33101 12.2241 8.78033 11.9518 9.02926 11.7982L9.47919 11.5259L8.30766 11.0759L7.13613 10.6383L6.86384 9.66778C6.72186 9.1355 6.56819 8.62657 6.52087 8.54359C6.46124 8.43788 6.21231 8.65116 5.73903 9.25474Z" fill="#FF6E00"/>
<path d="M33.2063 9.39669C33.0409 9.94127 32.8989 10.4379 32.8989 10.5092C32.8989 10.5682 32.3666 10.8288 31.7034 11.0771L30.5202 11.5271L30.9701 11.7994C31.2184 11.953 31.6684 12.2253 31.9763 12.4029L32.5443 12.7226V13.8695C32.5443 14.5087 32.5799 15.0293 32.615 15.0293C32.6506 15.0293 33.0883 14.7097 33.5738 14.3194C34.0711 13.9291 34.5444 13.6095 34.6391 13.6095C34.7337 13.6095 35.2427 13.7158 35.7633 13.8578C36.2839 13.9881 36.7338 14.0705 36.7695 14.0471C36.7928 14.0115 36.6509 13.5855 36.4499 13.0883C36.2605 12.591 36.0946 12.0944 36.0946 11.9997C36.0946 11.8934 36.3902 11.4078 36.7455 10.9112C37.1008 10.4139 37.3725 9.99966 37.3491 9.97631C37.3258 9.95295 36.7812 9.98798 36.1419 10.0476C35.5027 10.1189 34.9704 10.1539 34.9704 10.1423C34.8997 10.0243 33.5738 8.4028 33.5382 8.4028C33.5259 8.40219 33.3722 8.85211 33.2063 9.39669Z" fill="#FF6E00"/>
<path d="M2.43772 16.8168C2.41374 16.9115 2.31909 17.4321 2.23672 17.9766L2.09474 18.9705L1.05352 19.4438C0.473898 19.7161 0 19.9644 0 20C0 20.0357 0.473283 20.284 1.04122 20.5563L2.09474 21.0296L2.23672 21.9644C2.47337 23.4912 2.40268 23.4555 3.36092 22.509L4.20054 21.6682L5.26574 21.8458C5.84536 21.9405 6.38994 21.9995 6.46124 21.9878C6.54422 21.9638 6.40223 21.6092 6.08261 21.0646C5.81032 20.5796 5.57368 20.0941 5.57368 19.9994C5.57368 19.9048 5.81032 19.4198 6.08261 18.9342C6.42559 18.3546 6.55589 18.035 6.44956 18.0111C6.37826 17.9871 5.83429 18.0584 5.25406 18.153L4.20054 18.3196L3.34863 17.4794C2.76901 16.9115 2.47275 16.6982 2.43772 16.8168Z" fill="#FF6E00"/>
<path d="M36.6268 17.5027L35.7982 18.3196L34.7447 18.1536C34.1651 18.059 33.6205 17.9877 33.5492 18.0116C33.4429 18.035 33.5732 18.3546 33.9162 18.9348C34.1885 19.4198 34.4251 19.9053 34.4251 20C34.4251 20.0946 34.1885 20.5802 33.9162 21.0651C33.5965 21.6097 33.4546 21.9644 33.5375 21.9883C33.6082 22 34.1528 21.941 34.733 21.8463L35.7982 21.6687L36.6501 22.5089C37.6084 23.4671 37.5137 23.5151 37.751 21.9644C37.8217 21.5144 37.9046 21.1008 37.9286 21.0651C37.9643 21.0178 38.4376 20.7812 38.9938 20.5329C39.5501 20.2846 40 20.0479 40 20.0006C40 19.9533 39.5501 19.7166 38.9938 19.4683C38.4376 19.22 37.9526 18.9834 37.9286 18.936C37.893 18.8887 37.8106 18.4271 37.7393 17.9182C37.668 17.3976 37.5733 16.9121 37.526 16.8414C37.4787 16.7455 37.1591 16.9704 36.6268 17.5027Z" fill="#FF6E00"/>
<path d="M6.41396 25.6799C5.92899 26.0702 5.47906 26.3899 5.40776 26.3899C5.32478 26.3899 4.81585 26.2835 4.27187 26.1532C3.72729 26.0229 3.254 25.9283 3.23064 25.9522C3.20728 25.9879 3.34927 26.4255 3.55026 26.9344C3.73958 27.4434 3.90554 27.9283 3.90554 28.0113C3.90554 28.0943 3.60989 28.5676 3.25461 29.0765C2.89934 29.5738 2.62766 30.0114 2.65102 30.0231C2.67499 30.0471 3.21896 30.0114 3.85821 29.9518C4.49745 29.8811 5.02975 29.8455 5.02975 29.8571C5.04142 29.8688 5.36105 30.2714 5.73968 30.7447C6.21296 31.3483 6.4619 31.5616 6.52091 31.4546C6.56824 31.3717 6.7219 30.8627 6.87618 30.3304L7.13618 29.3599L7.97642 29.0403C9.69255 28.401 9.62125 28.543 8.47368 27.8687L7.45581 27.2768V26.117C7.45581 25.49 7.42016 24.9688 7.37283 24.9688C7.31321 24.97 6.88725 25.2896 6.41396 25.6799Z" fill="#FF6E00"/>
<path d="M32.5436 26.1182V27.278L31.9757 27.5977C31.6677 27.7753 31.2184 28.0476 30.9695 28.2012L30.5196 28.4735L31.6911 28.9234L32.8626 29.3611L33.1349 30.3316C33.2769 30.8639 33.4306 31.3728 33.4779 31.4558C33.5369 31.5505 33.7736 31.3495 34.2118 30.8166C34.5548 30.3789 34.8744 29.9763 34.9101 29.929C34.9457 29.87 35.502 29.8817 36.1406 29.9524C36.7798 30.0114 37.3238 30.047 37.3478 30.0237C37.3718 29.9997 37.0995 29.586 36.7442 29.0888C36.3889 28.5915 36.0933 28.1066 36.0933 28.0003C36.0933 27.9056 36.2592 27.4083 36.4486 26.9117C36.6495 26.4145 36.7799 25.9768 36.7442 25.9412C36.7202 25.9055 36.2709 26.0002 35.7503 26.1305C35.2414 26.2725 34.7441 26.3911 34.6494 26.3911C34.5431 26.3911 34.0698 26.0715 33.5726 25.6812C33.087 25.2909 32.6494 24.9713 32.6137 24.9713C32.5793 24.97 32.5436 25.4906 32.5436 26.1182Z" fill="#FF6E00"/>
<path d="M11.0884 31.68L10.6385 32.8516L9.64459 33.1239C9.1 33.2775 8.60336 33.4435 8.52038 33.4908C8.4374 33.5382 8.72137 33.8338 9.25428 34.2598C9.72756 34.6384 10.1302 34.958 10.1418 34.9697C10.1535 34.9697 10.1179 35.502 10.0472 36.1412C9.98818 36.7805 9.95253 37.3244 9.97589 37.3484C9.99986 37.3724 10.4135 37.1001 10.9108 36.7448C11.408 36.3896 11.893 36.0939 11.9993 36.0939C12.094 36.0939 12.5913 36.2599 13.0879 36.4492C13.5852 36.6502 14.0111 36.7921 14.0468 36.7688C14.0701 36.7331 13.9878 36.2832 13.8574 35.7626C13.7155 35.242 13.6091 34.733 13.6091 34.6384C13.6091 34.5437 13.9287 34.0704 14.3191 33.5732C14.7094 33.0876 15.029 32.65 15.029 32.6143C15.029 32.5787 14.5084 32.5436 13.8808 32.5436H12.7209L12.4013 31.9757C12.2237 31.6678 11.9514 31.2184 11.7977 30.9695L11.5254 30.5196L11.0884 31.68Z" fill="#FF6E00"/>
<path d="M27.8692 31.5381L27.2773 32.5443H26.1291C25.4898 32.5443 24.9692 32.58 24.9692 32.615C24.9692 32.6506 25.2888 33.0883 25.6791 33.5739C26.0695 34.0711 26.3891 34.5444 26.3891 34.6507C26.3891 34.7454 26.2705 35.2427 26.1285 35.7516C25.9982 36.2722 25.9035 36.7222 25.9392 36.7455C25.9748 36.7812 26.4124 36.6509 26.9097 36.4499C27.4063 36.2605 27.9036 36.0946 27.9983 36.0946C28.1046 36.0946 28.5902 36.3902 29.0868 36.7455C29.5835 37.1008 29.9984 37.3725 30.0217 37.3491C30.0457 37.3258 30.0101 36.7812 29.9504 36.1419C29.8797 35.5027 29.8675 34.9464 29.9271 34.9114C29.9744 34.8757 30.377 34.5561 30.8146 34.2131C31.3469 33.7755 31.5485 33.5388 31.4539 33.4792C31.3709 33.4319 30.862 33.2782 30.3297 33.1362L29.3591 32.8639L28.9215 31.7041C28.6732 31.0531 28.4716 30.5325 28.4599 30.5325C28.4599 30.5325 28.1888 30.9818 27.8692 31.5381Z" fill="#FF6E00"/>
<path d="M17.9996 33.6446C17.9996 33.7866 18.0709 34.3311 18.1656 34.8517L18.3192 35.7983L17.479 36.6502C16.5324 37.6084 16.4851 37.5138 18.0353 37.751C18.4852 37.8217 18.8995 37.9047 18.9345 37.9287C18.9818 37.9643 19.2185 38.4376 19.4668 38.9938C19.7151 39.5501 19.9517 40 19.9991 40C20.0464 40 20.283 39.5501 20.5313 38.9938C20.7797 38.4376 21.0163 37.9643 21.0636 37.9287C21.0993 37.9053 21.5136 37.8223 21.9629 37.751C23.513 37.5144 23.4657 37.609 22.5074 36.6502L21.6672 35.7983L21.8449 34.7921C22.0932 33.2537 22.1288 33.3127 21.2769 33.7983C20.0697 34.4725 20.0341 34.4848 19.7384 34.3428C19.5848 34.2715 19.1349 34.0232 18.7323 33.7983C18.0113 33.384 17.9879 33.384 17.9996 33.6446Z" fill="#FF6E00"/>
</svg>
