<svg width="244" height="240" viewBox="0 0 244 240" fill="none" xmlns="http://www.w3.org/2000/svg">
<circle cx="120" cy="120" r="120" fill="white"/>
<path d="M126 205.13C84.5786 205.13 51 171.552 51 130.13C51 88.7089 84.5786 55.1302 126 55.1302C167.421 55.1302 201 88.7089 201 130.13C201 171.552 167.421 205.13 126 205.13Z" fill="white"/>
<path d="M83.8982 64.9597L88.502 72.1953L87.3141 72.9511L82.7103 65.7156L83.8982 64.9597ZM81.5914 62.6157C81.7714 62.5012 81.9689 62.464 82.1841 62.5041C82.4025 62.5295 82.5948 62.6727 82.7608 62.9336C82.9211 63.1856 82.9694 63.4204 82.9056 63.638C82.8507 63.8499 82.7333 64.0131 82.5533 64.1276C82.3554 64.2536 82.1488 64.2965 81.9336 64.2564C81.7185 64.2163 81.5307 64.0703 81.3704 63.8183C81.2043 63.5573 81.1516 63.3254 81.2121 63.1225C81.267 62.9106 81.3934 62.7417 81.5914 62.6157Z" fill="black"/>
<path d="M92.7122 59.8553C93.643 59.4285 94.4504 59.334 95.1345 59.5718C95.8141 59.7999 96.3851 60.4182 96.8475 61.4265L99.1752 66.5023L97.9099 67.0825L95.6222 62.094C95.3332 61.4638 94.977 61.058 94.5535 60.8767C94.1301 60.6954 93.6178 60.7426 93.0166 61.0182C92.1537 61.414 91.6686 61.9298 91.5612 62.5658C91.4539 63.2017 91.6092 63.9754 92.0272 64.8868L93.8813 68.93L92.6014 69.5169L89.0266 61.7215L90.0592 61.2479L90.7351 62.2229L90.8079 62.1896C90.8579 61.8381 90.9689 61.5172 91.141 61.2271C91.3183 60.9228 91.5421 60.6559 91.8123 60.4264C92.0826 60.1968 92.3825 60.0065 92.7122 59.8553Z" fill="black"/>
<path d="M106.446 64.0726C105.415 64.3438 104.496 64.2048 103.69 63.6557C102.881 63.0963 102.29 62.1047 101.915 60.6811C101.541 59.2575 101.569 58.1032 101.998 57.2184C102.434 56.3205 103.169 55.736 104.2 55.4648C104.634 55.3509 105.025 55.3087 105.375 55.3381C105.722 55.3572 106.038 55.4284 106.324 55.5517C106.61 55.6751 106.866 55.8285 107.09 56.0121L107.183 55.9877C107.138 55.8563 107.065 55.6657 106.967 55.4159C106.876 55.1531 106.81 54.9443 106.769 54.7896L105.899 51.4781L107.26 51.1201L110.352 62.8806L109.253 63.1694L108.759 62.1082L108.697 62.1244C108.594 62.4051 108.45 62.6746 108.264 62.933C108.076 63.1811 107.832 63.4052 107.531 63.6055C107.241 63.803 106.88 63.9587 106.446 64.0726ZM106.366 62.886C107.243 62.6555 107.794 62.2569 108.02 61.6902C108.254 61.1104 108.243 60.3357 107.989 59.3659L107.923 59.1183C107.652 58.0867 107.275 57.3423 106.79 56.885C106.304 56.4174 105.601 56.3043 104.683 56.5456C103.95 56.7382 103.476 57.1773 103.259 57.8629C103.05 58.5355 103.074 59.3619 103.332 60.3419C103.592 61.3323 103.975 62.0534 104.479 62.5052C104.994 62.9543 105.623 63.0813 106.366 62.886Z" fill="black"/>
<path d="M121.382 52.6626L122.109 61.2078L120.961 61.3054L120.658 60.1911L120.594 60.1965C120.438 60.5095 120.225 60.7738 119.955 60.9895C119.684 61.2053 119.382 61.3701 119.049 61.484C118.717 61.6086 118.365 61.6867 117.993 61.7184C117.313 61.7762 116.73 61.7188 116.245 61.546C115.769 61.3616 115.394 61.0509 115.121 60.6138C114.849 60.1767 114.682 59.5967 114.62 58.874L114.144 53.2782L115.563 53.1575L116.031 58.6577C116.089 59.3379 116.286 59.8349 116.623 60.1488C116.961 60.4627 117.453 60.5921 118.102 60.537C118.739 60.4827 119.229 60.3233 119.57 60.0588C119.922 59.7827 120.152 59.4098 120.262 58.9401C120.382 58.4589 120.414 57.8888 120.358 57.2299L119.979 52.7819L121.382 52.6626Z" fill="black"/>
<path d="M133.243 59.0985C133.202 59.6517 133.03 60.1043 132.726 60.4563C132.422 60.8084 132.008 61.0614 131.483 61.2154C130.958 61.3693 130.345 61.4206 129.643 61.369C129.047 61.3253 128.534 61.2395 128.105 61.1117C127.687 60.9848 127.319 60.8241 127.002 60.6296L127.095 59.3531C127.423 59.5483 127.821 59.7379 128.289 59.922C128.768 60.0962 129.258 60.2017 129.758 60.2384C130.47 60.2907 130.995 60.2169 131.33 60.017C131.667 59.8064 131.849 59.5096 131.877 59.1266C131.892 58.9138 131.848 58.7181 131.744 58.5393C131.639 58.3605 131.439 58.1746 131.143 57.9818C130.857 57.7897 130.441 57.5666 129.892 57.3124C129.355 57.059 128.897 56.8115 128.519 56.5698C128.141 56.3282 127.857 56.0506 127.666 55.7371C127.475 55.4236 127.397 55.0329 127.431 54.5648C127.484 53.8414 127.818 53.3044 128.432 52.9537C129.056 52.6039 129.847 52.4641 130.805 52.5344C131.326 52.5727 131.806 52.6614 132.245 52.8006C132.695 52.9299 133.111 53.0994 133.491 53.3092L132.93 54.391C132.704 54.2675 132.461 54.1587 132.2 54.0647C131.951 53.9608 131.695 53.8779 131.433 53.8158C131.171 53.7431 130.901 53.6966 130.625 53.6763C130.05 53.6341 129.602 53.6974 129.279 53.8662C128.968 54.0252 128.801 54.2643 128.777 54.5834C128.76 54.8175 128.814 55.0247 128.94 55.205C129.067 55.3747 129.284 55.5511 129.591 55.7341C129.91 55.9073 130.333 56.1201 130.86 56.3727C131.387 56.6147 131.835 56.8561 132.202 57.097C132.57 57.3379 132.843 57.62 133.023 57.9433C133.203 58.256 133.276 58.6411 133.243 59.0985Z" fill="black"/>
<path d="M139.707 61.4783C139.916 61.5207 140.134 61.5484 140.36 61.5616C140.588 61.5642 140.774 61.5584 140.918 61.5441L140.705 62.5948C140.544 62.6383 140.324 62.6534 140.043 62.6402C139.761 62.6374 139.494 62.6105 139.243 62.5597C138.804 62.4707 138.411 62.3149 138.065 62.0923C137.731 61.8613 137.487 61.5344 137.333 61.1114C137.179 60.6885 137.171 60.1372 137.309 59.4577L138.3 54.5652L137.108 54.3237L137.242 53.665L138.561 53.3609L139.472 51.6844L140.287 51.8497L139.896 53.7785L142.327 54.271L142.111 55.3373L139.68 54.8448L138.695 59.706C138.591 60.2182 138.634 60.6242 138.824 60.9238C139.026 61.2151 139.32 61.3999 139.707 61.4783Z" fill="black"/>
<path d="M151.035 56.5099C151.187 56.5599 151.346 56.6233 151.511 56.7002C151.69 56.7703 151.841 56.8422 151.963 56.9159L151.391 58.0921C151.269 58.0184 151.13 57.9448 150.975 57.8712C150.83 57.801 150.686 57.7426 150.544 57.6959C150.23 57.5927 149.909 57.5603 149.582 57.5987C149.255 57.6372 148.94 57.7414 148.637 57.9113C148.338 58.0711 148.067 58.2965 147.826 58.5876C147.594 58.8821 147.41 59.237 147.274 59.6525L145.845 63.9996L144.507 63.5599L147.185 55.4128L148.279 55.7726L147.942 57.3121L148.003 57.3321C148.275 57.0847 148.572 56.8794 148.896 56.7162C149.222 56.5428 149.566 56.4368 149.926 56.3982C150.291 56.3494 150.66 56.3867 151.035 56.5099Z" fill="black"/>
<path d="M157.313 59.1296L153.768 66.9382L152.486 66.3561L156.031 58.5474L157.313 59.1296ZM158.017 55.9169C158.211 56.0051 158.35 56.1502 158.434 56.3524C158.532 56.5492 158.517 56.7884 158.389 57.0701C158.266 57.342 158.095 57.5107 157.878 57.5761C157.671 57.6459 157.47 57.6367 157.276 57.5485C157.062 57.4515 156.913 57.3019 156.829 57.0998C156.745 56.8977 156.765 56.6607 156.889 56.3887C157.016 56.1071 157.182 55.9362 157.385 55.8761C157.592 55.8063 157.803 55.8199 158.017 55.9169Z" fill="black"/>
<path d="M165.398 63.1049C166.288 63.6531 166.827 64.2539 167.013 64.9073C167.199 65.5607 167.03 66.3143 166.504 67.1681L163.442 72.1408L162.57 71.6039L162.976 70.4258L162.921 70.3923C162.55 70.527 162.195 70.6153 161.856 70.6571C161.532 70.6954 161.199 70.666 160.858 70.5687C160.526 70.4771 160.156 70.3054 159.747 70.0537C159.311 69.7852 158.964 69.4647 158.705 69.0922C158.455 68.7253 158.328 68.3213 158.324 67.8804C158.325 67.4303 158.477 66.9601 158.779 66.4696C159.226 65.743 159.857 65.3606 160.669 65.3225C161.488 65.2752 162.503 65.5998 163.715 66.2962L164.98 67.0188L165.248 66.5828C165.623 65.9743 165.752 65.4708 165.634 65.0725C165.516 64.6741 165.216 64.3267 164.735 64.0303C164.353 63.7954 163.953 63.6307 163.536 63.5362C163.123 63.4326 162.723 63.3612 162.333 63.322L162.519 62.1963C162.943 62.2195 163.41 62.3063 163.919 62.4567C164.433 62.598 164.926 62.8141 165.398 63.1049ZM163.353 67.2195C162.422 66.6965 161.702 66.4531 161.191 66.4893C160.689 66.531 160.296 66.7835 160.01 67.2467C159.759 67.6555 159.697 68.0307 159.824 68.3724C159.961 68.7198 160.225 69.0137 160.616 69.2542C161.233 69.6346 161.85 69.7826 162.466 69.6982C163.087 69.6048 163.616 69.2038 164.052 68.4954L164.455 67.8414L163.353 67.2195Z" fill="black"/>
<path d="M168.716 75.9317L167.621 75.0464L175.266 65.5907L176.361 66.476L168.716 75.9317Z" fill="black"/>
<path d="M80.224 119.056C80.224 126.736 78.784 133.168 75.904 138.352C73.088 143.536 69.024 147.44 63.712 150.064C58.4 152.688 51.968 154 44.416 154H25.312V85.456H46.432C53.344 85.456 59.328 86.736 64.384 89.296C69.44 91.856 73.344 95.632 76.096 100.624C78.848 105.552 80.224 111.696 80.224 119.056ZM71.104 119.344C71.104 113.264 70.08 108.272 68.032 104.368C66.048 100.464 63.104 97.584 59.2 95.728C55.36 93.808 50.688 92.848 45.184 92.848H33.952V146.608H43.264C52.544 146.608 59.488 144.336 64.096 139.792C68.768 135.184 71.104 128.368 71.104 119.344ZM156.228 85.456L131.748 154H123.108L98.6275 85.456H107.652L123.108 129.424C123.812 131.28 124.42 133.072 124.932 134.8C125.444 136.528 125.892 138.192 126.276 139.792C126.724 141.328 127.108 142.864 127.428 144.4C127.748 142.864 128.1 141.296 128.484 139.696C128.932 138.096 129.412 136.432 129.924 134.704C130.5 132.976 131.108 131.152 131.748 129.232L147.108 85.456H156.228ZM217.822 135.664C217.822 139.76 216.83 143.248 214.846 146.128C212.862 148.944 210.014 151.12 206.302 152.656C202.654 154.192 198.334 154.96 193.342 154.96C190.782 154.96 188.318 154.832 185.95 154.576C183.646 154.32 181.534 153.968 179.614 153.52C177.694 153.008 175.998 152.4 174.526 151.696V143.44C176.83 144.464 179.678 145.392 183.07 146.224C186.526 147.056 190.078 147.472 193.726 147.472C197.118 147.472 199.966 147.024 202.27 146.128C204.574 145.232 206.302 143.952 207.454 142.288C208.606 140.624 209.182 138.672 209.182 136.432C209.182 134.192 208.702 132.304 207.742 130.768C206.782 129.232 205.118 127.824 202.75 126.544C200.446 125.2 197.214 123.792 193.054 122.32C190.11 121.232 187.518 120.08 185.278 118.864C183.102 117.584 181.278 116.144 179.806 114.544C178.334 112.944 177.214 111.12 176.446 109.072C175.742 107.024 175.39 104.656 175.39 101.968C175.39 98.32 176.318 95.216 178.174 92.656C180.03 90.032 182.59 88.016 185.854 86.608C189.182 85.2 192.99 84.496 197.278 84.496C201.054 84.496 204.51 84.848 207.646 85.552C210.782 86.256 213.63 87.184 216.19 88.336L213.502 95.728C211.134 94.704 208.542 93.84 205.726 93.136C202.974 92.432 200.094 92.08 197.086 92.08C194.206 92.08 191.806 92.496 189.886 93.328C187.966 94.16 186.526 95.344 185.566 96.88C184.606 98.352 184.126 100.08 184.126 102.064C184.126 104.368 184.606 106.288 185.566 107.824C186.526 109.36 188.094 110.736 190.27 111.952C192.446 113.168 195.39 114.48 199.102 115.888C203.134 117.36 206.526 118.96 209.278 120.688C212.094 122.352 214.206 124.368 215.614 126.736C217.086 129.104 217.822 132.08 217.822 135.664Z" fill="#FF3E00"/>
<line x1="91.7539" y1="84.6187" x2="118.631" y2="157.664" stroke="#FF3E00" stroke-width="8" stroke-miterlimit="1.30541"/>
<line x1="163.627" y1="85.4335" x2="135.734" y2="158.097" stroke="#FF3E00" stroke-width="8" stroke-miterlimit="1.30541"/>
<rect x="107" y="154" width="39" height="7" fill="white"/>
<rect x="80" y="79" width="90" height="7" fill="white"/>
<path d="M74.6 184.565V183.395H78.23V184.565H74.6ZM85.314 179.81C86.004 179.81 86.594 179.96 87.084 180.26C87.584 180.56 87.964 180.985 88.224 181.535C88.494 182.075 88.629 182.71 88.629 183.44V184.235H83.124C83.144 185.145 83.374 185.84 83.814 186.32C84.264 186.79 84.889 187.025 85.689 187.025C86.199 187.025 86.649 186.98 87.039 186.89C87.439 186.79 87.849 186.65 88.269 186.47V187.625C87.859 187.805 87.454 187.935 87.054 188.015C86.654 188.105 86.179 188.15 85.629 188.15C84.869 188.15 84.194 187.995 83.604 187.685C83.024 187.375 82.569 186.915 82.239 186.305C81.919 185.685 81.759 184.93 81.759 184.04C81.759 183.16 81.904 182.405 82.194 181.775C82.494 181.145 82.909 180.66 83.439 180.32C83.979 179.98 84.604 179.81 85.314 179.81ZM85.299 180.89C84.669 180.89 84.169 181.095 83.799 181.505C83.439 181.905 83.224 182.465 83.154 183.185H87.249C87.249 182.725 87.179 182.325 87.039 181.985C86.899 181.645 86.684 181.38 86.394 181.19C86.114 180.99 85.749 180.89 85.299 180.89ZM98.1308 188.165C98.1308 187.985 98.1358 187.775 98.1458 187.535C98.1558 187.295 98.1758 187.09 98.2058 186.92H98.1158C97.8858 187.26 97.5658 187.55 97.1558 187.79C96.7558 188.03 96.2358 188.15 95.5958 188.15C94.6258 188.15 93.8358 187.805 93.2258 187.115C92.6258 186.415 92.3258 185.375 92.3258 183.995C92.3258 183.075 92.4658 182.305 92.7458 181.685C93.0258 181.065 93.4158 180.6 93.9158 180.29C94.4158 179.97 94.9908 179.81 95.6408 179.81C96.2708 179.81 96.7858 179.93 97.1858 180.17C97.5858 180.41 97.9058 180.705 98.1458 181.055H98.2058L98.4008 179.96H99.4508V191.6H98.1308V188.165ZM95.8508 187.055C96.4008 187.055 96.8408 186.955 97.1708 186.755C97.5108 186.555 97.7558 186.25 97.9058 185.84C98.0558 185.42 98.1358 184.9 98.1458 184.28V184.01C98.1458 182.99 97.9758 182.22 97.6358 181.7C97.2958 181.17 96.6908 180.905 95.8208 180.905C95.1008 180.905 94.5658 181.19 94.2158 181.76C93.8658 182.32 93.6908 183.075 93.6908 184.025C93.6908 184.975 93.8658 185.72 94.2158 186.26C94.5758 186.79 95.1208 187.055 95.8508 187.055ZM110.824 179.96V188H109.744L109.549 186.935H109.489C109.319 187.215 109.099 187.445 108.829 187.625C108.559 187.805 108.264 187.935 107.944 188.015C107.624 188.105 107.289 188.15 106.939 188.15C106.299 188.15 105.759 188.05 105.319 187.85C104.889 187.64 104.564 187.32 104.344 186.89C104.124 186.46 104.014 185.905 104.014 185.225V179.96H105.349V185.135C105.349 185.775 105.494 186.255 105.784 186.575C106.074 186.895 106.524 187.055 107.134 187.055C107.734 187.055 108.204 186.945 108.544 186.725C108.894 186.495 109.139 186.165 109.279 185.735C109.429 185.295 109.504 184.765 109.504 184.145V179.96H110.824ZM116.797 179.96V188H115.477V179.96H116.797ZM116.152 176.945C116.352 176.945 116.527 177.015 116.677 177.155C116.837 177.285 116.917 177.495 116.917 177.785C116.917 178.065 116.837 178.275 116.677 178.415C116.527 178.555 116.352 178.625 116.152 178.625C115.932 178.625 115.747 178.555 115.597 178.415C115.447 178.275 115.372 178.065 115.372 177.785C115.372 177.495 115.447 177.285 115.597 177.155C115.747 177.015 115.932 176.945 116.152 176.945ZM125.269 179.81C126.259 179.81 127.054 180.155 127.654 180.845C128.264 181.535 128.569 182.575 128.569 183.965C128.569 184.875 128.429 185.645 128.149 186.275C127.879 186.895 127.494 187.365 126.994 187.685C126.504 187.995 125.924 188.15 125.254 188.15C124.844 188.15 124.479 188.095 124.159 187.985C123.839 187.875 123.564 187.735 123.334 187.565C123.114 187.385 122.924 187.19 122.764 186.98H122.674C122.694 187.15 122.714 187.365 122.734 187.625C122.754 187.885 122.764 188.11 122.764 188.3V191.6H121.444V179.96H122.524L122.704 181.055H122.764C122.924 180.825 123.114 180.615 123.334 180.425C123.564 180.235 123.834 180.085 124.144 179.975C124.464 179.865 124.839 179.81 125.269 179.81ZM125.029 180.92C124.489 180.92 124.054 181.025 123.724 181.235C123.394 181.435 123.154 181.74 123.004 182.15C122.854 182.56 122.774 183.08 122.764 183.71V183.965C122.764 184.625 122.834 185.185 122.974 185.645C123.114 186.105 123.349 186.455 123.679 186.695C124.019 186.935 124.479 187.055 125.059 187.055C125.549 187.055 125.949 186.92 126.259 186.65C126.579 186.38 126.814 186.015 126.964 185.555C127.124 185.085 127.204 184.55 127.204 183.95C127.204 183.03 127.024 182.295 126.664 181.745C126.314 181.195 125.769 180.92 125.029 180.92ZM141.592 179.81C142.502 179.81 143.182 180.045 143.632 180.515C144.082 180.975 144.307 181.725 144.307 182.765V188H143.002V182.825C143.002 182.195 142.867 181.72 142.597 181.4C142.337 181.08 141.927 180.92 141.367 180.92C140.587 180.92 140.027 181.145 139.687 181.595C139.357 182.045 139.192 182.7 139.192 183.56V188H137.887V182.825C137.887 182.405 137.827 182.055 137.707 181.775C137.587 181.485 137.407 181.27 137.167 181.13C136.927 180.99 136.617 180.92 136.237 180.92C135.697 180.92 135.272 181.035 134.962 181.265C134.652 181.485 134.427 181.81 134.287 182.24C134.157 182.67 134.092 183.2 134.092 183.83V188H132.772V179.96H133.837L134.032 181.055H134.107C134.277 180.775 134.482 180.545 134.722 180.365C134.972 180.175 135.247 180.035 135.547 179.945C135.847 179.855 136.157 179.81 136.477 179.81C137.097 179.81 137.612 179.92 138.022 180.14C138.442 180.36 138.747 180.7 138.937 181.16H139.012C139.282 180.7 139.647 180.36 140.107 180.14C140.577 179.92 141.072 179.81 141.592 179.81ZM151.996 179.81C152.686 179.81 153.276 179.96 153.766 180.26C154.266 180.56 154.646 180.985 154.906 181.535C155.176 182.075 155.311 182.71 155.311 183.44V184.235H149.806C149.826 185.145 150.056 185.84 150.496 186.32C150.946 186.79 151.571 187.025 152.371 187.025C152.881 187.025 153.331 186.98 153.721 186.89C154.121 186.79 154.531 186.65 154.951 186.47V187.625C154.541 187.805 154.136 187.935 153.736 188.015C153.336 188.105 152.861 188.15 152.311 188.15C151.551 188.15 150.876 187.995 150.286 187.685C149.706 187.375 149.251 186.915 148.921 186.305C148.601 185.685 148.441 184.93 148.441 184.04C148.441 183.16 148.586 182.405 148.876 181.775C149.176 181.145 149.591 180.66 150.121 180.32C150.661 179.98 151.286 179.81 151.996 179.81ZM151.981 180.89C151.351 180.89 150.851 181.095 150.481 181.505C150.121 181.905 149.906 182.465 149.836 183.185H153.931C153.931 182.725 153.861 182.325 153.721 181.985C153.581 181.645 153.366 181.38 153.076 181.19C152.796 180.99 152.431 180.89 151.981 180.89ZM163.328 179.81C164.288 179.81 165.013 180.045 165.503 180.515C165.993 180.975 166.238 181.725 166.238 182.765V188H164.933V182.855C164.933 182.205 164.788 181.72 164.498 181.4C164.208 181.08 163.753 180.92 163.133 180.92C162.243 180.92 161.628 181.17 161.288 181.67C160.948 182.17 160.778 182.89 160.778 183.83V188H159.458V179.96H160.523L160.718 181.055H160.793C160.973 180.775 161.193 180.545 161.453 180.365C161.723 180.175 162.018 180.035 162.338 179.945C162.658 179.855 162.988 179.81 163.328 179.81ZM173.515 187.07C173.715 187.07 173.92 187.055 174.13 187.025C174.34 186.985 174.51 186.945 174.64 186.905V187.91C174.5 187.98 174.3 188.035 174.04 188.075C173.78 188.125 173.53 188.15 173.29 188.15C172.87 188.15 172.48 188.08 172.12 187.94C171.77 187.79 171.485 187.535 171.265 187.175C171.045 186.815 170.935 186.31 170.935 185.66V180.98H169.795V180.35L170.95 179.825L171.475 178.115H172.255V179.96H174.58V180.98H172.255V185.63C172.255 186.12 172.37 186.485 172.6 186.725C172.84 186.955 173.145 187.07 173.515 187.07ZM177.675 184.565V183.395H181.305V184.565H177.675Z" fill="black"/>
</svg>
